# xmcd
#
# Track frame offsets:
# 150
# 20433
# 47054
# 66482
# 85492
# 99924
# 114884
# 136316
# 151314
# 166285
# 187405
# 204668
# 224437
# 238608
# 258792
# 275697
# 296676
# 316582
#
# Disc length: 4500 seconds
#
#
# Revision: 0
# Processed by: cddbd v1.5.1PL0 Copyright (c) Steve Scherf et al.
# Submitted via: FreeRIP 2.60 
#
DISCID=08119212
DTITLE=Santana - Greatest Hits'99
DYEAR=1999
DGENRE=Guitar
TTITLE0=Samba Pa Ti
TTITLE1=En Aranjuez Con Tu Amor
TTITLE2=Oye Como Va
TTITLE3=Daugter Of The Night
TTITLE4=Black Magic Woman
TTITLE5=Europa
TTITLE6=Flor D'luna
TTITLE7=Bella
TTITLE8=What Does It Take
TTITLE9=They All Went To Mexico
TTITLE10=Aqua Marine
TTITLE11=Gypsy Woman
TTITLE12=I'll Be Waiting
TTITLE13=Full Moon
TTITLE14=Stay (Beside Me)
TTITLE15=I Love Yoy Too Much
TTITLE16=Practice What You Preach
TTITLE17=Meditation
EXTD=
EXTT0=
EXTT1=
EXTT2=
EXTT3=
EXTT4=
EXTT5=
EXTT6=
EXTT7=
EXTT8=
EXTT9=
EXTT10=
EXTT11=
EXTT12=
EXTT13=
EXTT14=
EXTT15=
EXTT16=
EXTT17=
PLAYORDER=
